# xmcd
#
# Track frame offsets: 
#        150
#        19735
#        38313
#        56095
#        67971
#        78601
#        92685
#        103818
#        117579
#        130382
#        147098
#        165557
#        184005
#        202256
#        215388
#        228632
#        247098
#        266720
#        285831
#        303451
#        321813
#        339465
#
# Disc length: 4777 seconds
#
# Revision: 1
# Processed by: cddbd v1.5.2PL0 Copyright (c) Steve Scherf et al.
# Submitted via: ExactAudioCopy v0.99pb4
#
DISCID=4512a716
DTITLE=Sidney Bechet - Sidneys Blues - CD 2
DYEAR=1900
DGENRE=Jazz
TTITLE0=Blues For Tommy (Improvisation)
TTITLE1=Summertime
TTITLE2=Pounding Heart Blues
TTITLE3=Magic Island-Meringue
TTITLE4=Rose Rumba
TTITLE5=Indian Summer
TTITLE6=One O'Clock Jump
TTITLE7=Preachin' Blues
TTITLE8=Sidney's Blues
TTITLE9=Careless Love
TTITLE10=Milk Cow Blues
TTITLE11=Lonesome Blues
TTITLE12=Dear Old Southland
TTITLE13=Bechet's Steady Rider
TTITLE14=Saturday Night Blues
TTITLE15=Four Or Five Times
TTITLE16=Sweet Lorraine
TTITLE17=Lazy River
TTITLE18=China Boy
TTITLE19=If I Could Be With You
TTITLE20=Squeeze Me
TTITLE21=That's A Plenty
EXTD=
EXTT0=
EXTT1=
EXTT2=
EXTT3=
EXTT4=
EXTT5=
EXTT6=
EXTT7=
EXTT8=
EXTT9=
EXTT10=
EXTT11=
EXTT12=
EXTT13=
EXTT14=
EXTT15=
EXTT16=
EXTT17=
EXTT18=
EXTT19=
EXTT20=
EXTT21=
PLAYORDER=
